#!OML:ASF E:\motion texture\Top Level 1\Subject 1\Session 1\male.ASF
:FULLY-SPECIFIED
:DEGREES
242
root -8.50562 17.5234 4.54264 144.88 -84.3089 -142.017
lowerback -2.83569 0.830084 2.45533
upperback -4.18751 1.01461 1.74414
thorax -2.70273 0.420087 0.424212
lowerneck -20.0563 -3.22443 -4.50738
upperneck 20.3924 -4.76722 6.25026
head 10.077 -1.87153 2.25165
rclavicle -1.75427e-014 -1.64991e-014
rhumerus -33.3716 16.6521 -86.4446
rradius 60.5622
rwrist -1.43715
rhand -11.0098 -9.02804
rfingers 7.12502
rthumb 15.011 -38.4639
lclavicle -1.75427e-014 -1.64991e-014
lhumerus -36.1127 -12.8275 95.8335
lradius 43.8001
lwrist -1.59768
lhand -11.2546 6.43498
lfingers 7.12502
lthumb 14.7752 35.8883
rfemur -6.08227 -4.08063 20.726
rtibia 58.0003
rfoot 16.1099 4.28516
rtoes 7.3361
lfemur -26.4174 0.134745 -18.6938
ltibia 35.5831
lfoot 532.471 -182.684
ltoes 4.25166
243
root -8.64303 17.5297 4.55285 148.266 -85.338 -146.044
lowerback -2.14616 0.510247 1.3956
upperback -3.82134 0.628239 1.56799
thorax -2.7226 0.265427 0.828653
lowerneck -20.222 -3.24503 -4.51423
upperneck 19.9949 -4.80662 6.46327
head 9.97485 -1.86229 2.31807
rclavicle -2.36057e-015 1.37161e-014
rhumerus -34.6168 15.0185 -85.9907
rradius 58.804
rwrist -1.14971
rhand -11.0504 -9.15499
rfingers 7.12502
rthumb 14.9719 -38.5938
lclavicle -2.36057e-015 1.37161e-014
lhumerus -34.0669 -13.3468 96.7372
lradius 44.2983
lwrist -1.64944
lhand -11.2524 6.44722
lfingers 7.12502
lthumb 14.7773 35.9004
rfemur -8.68572 -4.68349 19.5059
rtibia 62.9453
rfoot 16.9904 4.1659
rtoes 9.13466
lfemur -25.1536 -0.245148 -19.8428
ltibia 35.3196
lfoot 532.142 -183.39
ltoes 4.75896
244
root -8.77702 17.5366 4.56173 154.484 -86.209 -152.909
lowerback -1.44697 0.240999 0.376654
upperback -3.44267 0.292682 1.37672
thorax -2.72665 0.131109 1.20092
lowerneck -20.3419 -3.25021 -4.50255
upperneck 19.5847 -4.82936 6.66897
head 9.85867 -1.84676 2.38116
rclavicle 6.06293e-015 8.74653e-015
rhumerus -35.7992 13.2815 -85.4424
rradius 57.0803
rwrist -0.718338
rhand -11.0859 -9.18388
rfingers 7.12502
rthumb 14.9378 -38.6252
lclavicle 6.06293e-015 8.74653e-015
lhumerus -32.1012 -13.9942 97.5574
lradius 45.0019
lwrist -1.66162
lhand -11.1615 6.48646
lfingers 7.12502
lthumb 14.8649 35.9332
rfemur -11.4532 -5.17822 18.3707
rtibia 67.9535
rfoot 16.8622 4.11719
rtoes 10.0865
lfemur -23.76 -0.409871 -20.9667
ltibia 34.896
lfoot 531.841 -184.028
ltoes 5.30148
245
root -8.90873 17.545 4.57063 164.228 -86.8623 -163.272
lowerback -0.767941 0.0152233 -0.543051
upperback -3.08005 -0.000915004 1.17696
thorax -2.72966 0.0110342 1.51367
lowerneck -20.4255 -3.23066 -4.4654
upperneck 19.2118 -4.82227 6.84297
head 9.74612 -1.82065 2.43351
rclavicle 2.16178e-015 1.49089e-014
rhumerus -36.9391 11.5201 -84.814
rradius 55.4202
rwrist -0.0891645
rhand -11.1122 -9.10528
rfingers 7.12502
rthumb 14.9124 -38.5485
lclavicle 2.16178e-015 1.49089e-014
lhumerus -30.2361 -14.7627 98.2805
lradius 45.8762
lwrist -1.56263
lhand -11.0694 6.55202
lfingers 7.12502
lthumb 14.9536 35.9922
rfemur -14.399 -5.60099 17.3449
rtibia 72.9001
rfoot 16.0686 4.30372
rtoes 10.4186
lfemur -22.2598 -0.457484 -22.0337
ltibia 34.2783
lfoot 531.575 -184.511
ltoes 5.75366
246
root -9.03858 17.5567 4.58057 176.826 -87.2667 -176.422
lowerback -0.13569 -0.182574 -1.31789
upperback -2.75746 -0.269895 0.985854
thorax -2.74311 -0.103578 1.75782
lowerneck -20.483 -3.18311 -4.40466
upperneck 18.9124 -4.77673 6.96054
head 9.65038 -1.78216 2.46835
rclavicle 1.34428e-014 -7.35503e-015
rhumerus -38.052 9.82538 -84.1135
rradius 53.8409
rwrist 0.703483
rhand -11.1651 -8.90265
rfingers 7.12502
rthumb 14.8615 -38.3496
lclavicle 1.34428e-014 -7.35503e-015
lhumerus -28.4716 -15.6292 98.9013
lradius 46.8757
lwrist -1.31429
lhand -11.0295 6.64055
lfingers 7.12502
lthumb 14.9921 36.0778
rfemur -17.5222 -5.98004 16.4674
rtibia 77.6516
rfoot 14.9907 5.03523
rtoes 10.4021
lfemur -20.7076 -0.508847 -23.0068
ltibia 33.4751
lfoot 531.343 -184.786
ltoes 6.10143
247
root -9.16707 17.5734 4.59206 190.079 -87.4563 -190.125
lowerback 0.416657 -0.372876 -1.9226
upperback -2.49248 -0.536633 0.817534
thorax -2.7674 -0.223082 1.93305
lowerneck -20.5264 -3.10354 -4.32432
upperneck 18.7067 -4.68433 7.00973
head 9.57966 -1.72817 2.48361
rclavicle -9.56651e-016 7.15625e-015
rhumerus -39.1498 8.27078 -83.3541
rradius 52.3743
rwrist 1.57219
rhand -11.1534 -8.72443
rfingers 7.12502
rthumb 14.8727 -38.1706
lclavicle -9.56651e-016 7.15625e-015
lhumerus -26.8043 -16.5589 99.4118
lradius 47.9553
lwrist -0.981089
lhand -11.0659 6.71694
lfingers 7.12502
lthumb 14.957 36.1568
rfemur -20.8272 -6.34361 15.7687
rtibia 82.6909
rfoot 15.4917 29.0724
rtoes 10.7437
lfemur -19.187 -0.668116 -23.8666
ltibia 32.5451
lfoot 531.145 -184.832
ltoes 6.32233
248
root -9.2946 17.5963 4.60445 201.948 -87.529 -202.32
lowerback 0.873033 -0.575487 -2.36395
upperback -2.297 -0.822575 0.687355
thorax -2.80597 -0.356528 2.05873
lowerneck -20.5565 -2.99768 -4.2366
upperneck 18.5945 -4.54814 6.98611
head 9.53438 -1.6611 2.47942
rclavicle -1.11816e-016 -3.77691e-015
rhumerus -40.2552 6.90048 -82.5437
rradius 51.0467
rwrist 2.39492
rhand -11.1202 -8.60439
rfingers 7.12502
rthumb 14.9047 -38.0482
lclavicle -1.11816e-016 -3.77691e-015
lhumerus -25.2326 -17.5059 99.8116
lradius 49.0822
lwrist -0.653037
lhand -11.168 6.74409
lfingers 7.12502
lthumb 14.8586 36.1913
rfemur -24.3016 -6.71984 15.2689
rtibia 87.0757
rfoot 16.278 53.2312
rtoes 11.2932
lfemur -17.772 -0.993162 -24.604
ltibia 31.5667
lfoot 530.963 -184.669
ltoes 6.3986
249
root -9.42106 17.6252 4.61652 212.544 -87.5843 -213.115
lowerback 1.24421 -0.80596 -2.68165
upperback -2.17969 -1.14585 0.60073
thorax -2.87337 -0.510748 2.16313
lowerneck -20.5744 -2.87047 -4.1577
upperneck 18.5647 -4.37318 6.90709
head 9.51207 -1.58241 2.46373
rclavicle 2.37299e-015 -6.36111e-015
rhumerus -41.3891 5.74526 -81.6949
rradius 49.8875
rwrist 3.01493
rhand -11.1231 -8.56476
rfingers 7.12502
rthumb 14.9019 -38.0088
lclavicle 2.37299e-015 -6.36111e-015
lhumerus -23.7631 -18.4411 100.108
lradius 50.2352
lwrist -0.418174
lhand -11.3383 6.71324
lfingers 7.12502
lthumb 14.6946 36.1725
rfemur -27.9259 -7.14223 14.9552
rtibia 89.1548
rfoot 21.0626 77.4698
rtoes 11.8216
lfemur -16.512 -1.49966 -25.2385
ltibia 30.6083
lfoot 530.787 -184.354
ltoes 6.36882
250
root -9.54674 17.6596 4.62698 223.037 -87.659 -223.705
lowerback 1.55253 -1.06814 -2.92888
upperback -2.12821 -1.51084 0.56026
thorax -2.96872 -0.686105 2.27909
lowerneck -20.5761 -2.72931 -4.09125
upperneck 18.5908 -4.1674 6.77692
head 9.50364 -1.49585 2.43724
rclavicle 1.84373e-014 5.1684e-015
rhumerus -42.5659 4.80911 -80.8145
rradius 48.918
rwrist 3.32402
rhand -11.1348 -8.56557
rfingers 7.12502
rthumb 14.8907 -38.0104
lclavicle 1.84373e-014 5.1684e-015
lhumerus -22.395 -19.3427 100.313
lradius 51.4016
lwrist -0.324008
lhand -11.498 6.61256
lfingers 7.12502
lthumb 14.5407 36.083
rfemur -31.6456 -7.62024 14.7985
rtibia 88.3558
rfoot 184.162 77.8485
rtoes 12.3148
lfemur -15.3981 -2.15059 -25.793
ltibia 29.702
lfoot 530.618 -183.963
ltoes 6.24871
251
root -9.67199 17.6979 4.63465 234.827 -87.7344 -235.535
lowerback 1.83509 -1.36131 -3.16308
upperback -2.11812 -1.91776 0.561437
thorax -3.08614 -0.881294 2.43481
lowerneck -20.5878 -2.58149 -4.03832
upperneck 18.6572 -3.94001 6.60351
head 9.50942 -1.40447 2.40131
rclavicle -9.26834e-015 8.15017e-015
rhumerus -43.7753 4.06644 -79.9023
rradius 48.1458
rwrist 3.3094
rhand -11.1358 -8.59012
rfingers 7.12502
rthumb 14.8897 -38.035
lclavicle -9.26834e-015 8.15017e-015
lhumerus -21.1104 -20.207 100.43
lradius 52.5838
lwrist -0.34509
lhand -11.6588 6.4738
lfingers 7.12502
lthumb 14.3858 35.9553
rfemur -35.3961 -8.15288 14.7509
rtibia 85.2245
rfoot 189.1 53.4137
rtoes 12.8271
lfemur -14.3852 -2.88577 -26.2956
ltibia 28.8548
lfoot 530.462 -183.585
ltoes 6.13743
252
root -9.79698 17.7383 4.63865 248.475 -87.7513 -249.211
lowerback 2.13153 -1.67836 -3.42837
upperback -2.13145 -2.35946 0.594446
thorax -3.2276 -1.09161 2.6459
lowerneck -20.6043 -2.43104 -4.0007
upperneck 18.7413 -3.69974 6.40859
head 9.52187 -1.31049 2.36237
rclavicle -8.77137e-015 4.77083e-015
rhumerus -45.0242 3.47948 -78.9639
rradius 47.5787
rwrist 3.03491
rhand -11.124 -8.60193
rfingers 7.12502
rthumb 14.901 -38.046
lclavicle -8.77137e-015 4.77083e-015
lhumerus -19.9156 -21.0381 100.46
lradius 53.7935
lwrist -0.427
lhand -11.7957 6.31176
lfingers 7.12502
lthumb 14.2539 35.8026
rfemur -39.116 -8.72512 14.7708
rtibia 81.1815
rfoot 189.689 28.8206
rtoes 13.5258
lfemur -13.4193 -3.6343 -26.7694
ltibia 28.0565
lfoot 530.321 -183.292
ltoes 6.06238
253
root -9.92252 17.779 4.63895 262.692 -87.6563 -263.485
lowerback 2.46741 -2.00563 -3.73208
upperback -2.14595 -2.81897 0.650093
thorax -3.38398 -1.3086 2.90742
lowerneck -20.6341 -2.28091 -3.96213
upperneck 18.8287 -3.45558 6.19708
head 9.53793 -1.21636 2.31796
rclavicle 1.85615e-014 -7.95139e-015
rhumerus -46.3071 2.99733 -77.9998
rradius 47.2073
rwrist 2.63975
rhand -11.0414 -8.61987
rfingers 7.12502
rthumb 14.9806 -38.058
lclavicle 1.85615e-014 -7.95139e-015
lhumerus -18.8029 -21.8399 100.403
lradius 55.0286
lwrist -0.531044
lhand -11.9009 6.11225
lfingers 7.12502
lthumb 14.1525 35.6102
rfemur -42.7481 -9.29876 14.8352
rtibia 77.9868
rfoot 189.726 4.11484
rtoes 14.2564
lfemur -12.444 -4.3326 -27.2156
ltibia 27.2898
lfoot 530.206 -183.121
ltoes 6.03076
